<?xml version="1.0" encoding="UTF-8" standalone="no"?>
<svg
   width="310mm"
   height="310mm"
   viewBox="0 0 309.99998 310"
   version="1.1"
   id="svg8"
   inkscape:export-filename="/home/juferoga/Imágenes/LogoGnubies.png"
   inkscape:export-xdpi="96"
   inkscape:export-ydpi="96"
   inkscape:version="1.1.2 (0a00cf5339, 2022-02-04)"
   sodipodi:docname="GLUD_LOGO_Round.svg"
   xmlns:inkscape="http://www.inkscape.org/namespaces/inkscape"
   xmlns:sodipodi="http://sodipodi.sourceforge.net/DTD/sodipodi-0.dtd"
   xmlns="http://www.w3.org/2000/svg"
   xmlns:svg="http://www.w3.org/2000/svg"
   xmlns:rdf="http://www.w3.org/1999/02/22-rdf-syntax-ns#"
   xmlns:cc="http://creativecommons.org/ns#"
   xmlns:dc="http://purl.org/dc/elements/1.1/">
  <defs
     id="defs2">
    <rect
       x="235.57022"
       y="118.53601"
       width="43.765011"
       height="26.461401"
       id="rect1069" />
    <clipPath
       clipPathUnits="userSpaceOnUse"
       id="clipPath3127">
      <path
         d="M 0,600 H 600 V 0 H 0 Z"
         id="path3125"
         inkscape:connector-curvature="0" />
    </clipPath>
    <clipPath
       clipPathUnits="userSpaceOnUse"
       id="clipPath3127-9">
      <path
         d="M 0,600 H 600 V 0 H 0 Z"
         id="path3125-9"
         inkscape:connector-curvature="0" />
    </clipPath>
  </defs>
  <sodipodi:namedview
     id="base"
     pagecolor="#ffffff"
     bordercolor="#666666"
     borderopacity="1.0"
     inkscape:pageopacity="0.0"
     inkscape:pageshadow="2"
     inkscape:zoom="0.21750785"
     inkscape:cx="622.96602"
     inkscape:cy="655.14877"
     inkscape:document-units="mm"
     inkscape:current-layer="g951"
     inkscape:document-rotation="0"
     showgrid="true"
     inkscape:window-width="1312"
     inkscape:window-height="704"
     inkscape:window-x="0"
     inkscape:window-y="0"
     inkscape:window-maximized="1"
     showguides="true"
     inkscape:guide-bbox="true"
     inkscape:pagecheckerboard="0"
     units="mm"
     height="310mm">
    <inkscape:grid
       type="xygrid"
       id="grid4545"
       originx="21.094086"
       originy="22.365364" />
  </sodipodi:namedview>
  <metadata
     id="metadata5">
    <rdf:RDF>
      <cc:Work
         rdf:about="">
        <dc:format>image/svg+xml</dc:format>
        <dc:type
           rdf:resource="http://purl.org/dc/dcmitype/StillImage" />
      </cc:Work>
    </rdf:RDF>
  </metadata>
  <g
     inkscape:label="Capa 1"
     inkscape:groupmode="layer"
     id="layer1"
     transform="translate(21.094086,22.365362)">
    <g
       inkscape:label="Capa 1"
       id="layer1-6"
       transform="translate(-14.486196,-66.824194)">
      <g
         id="g951"
         transform="matrix(3.9900596,0,0,3.3996058,-914.86969,-277.94319)">
        <g
           id="g1391"
           transform="translate(0.53048496,2.0235189)">
          <path
             style="fill:#ffffff;stroke:#ffffff;stroke-width:0;stroke-linecap:round;stroke-linejoin:round;stop-color:#000000"
             id="path1141"
             sodipodi:type="arc"
             sodipodi:cx="261.56403"
             sodipodi:cy="133.16757"
             sodipodi:rx="32.62487"
             sodipodi:ry="38.291256"
             sodipodi:start="0"
             sodipodi:end="6.2828537"
             sodipodi:arc-type="slice"
             d="m 294.1889,133.16757 a 32.62487,38.291256 0 0 1 -32.62217,38.29126 32.62487,38.291256 0 0 1 -32.62757,-38.28491 32.62487,38.291256 0 0 1 32.61675,-38.297603 32.62487,38.291256 0 0 1 32.63298,38.278553 l -32.62486,0.0127 z"
             inkscape:export-filename="/home/juferoga/Imágenes/LogosGlud/LogoGlud-Round.png"
             inkscape:export-xdpi="96"
             inkscape:export-ydpi="96" />
          <rect
             style="fill:none;fill-opacity:1;stroke:#ffffff;stroke-width:0.0766282;stroke-opacity:0;paint-order:stroke markers fill;stop-color:#000000"
             id="rect1241"
             width="53.27179"
             height="62.030125"
             x="233.89691"
             y="101.22144" />
          <ellipse
             style="fill:#000000;fill-opacity:0;stroke:#0a0000;stroke-width:1.09911;stroke-miterlimit:4;stroke-dasharray:none"
             id="path1273"
             cx="266.37698"
             cy="138.67554"
             rx="37.002563"
             ry="43.290783" />
          <ellipse
             style="fill:#000000;fill-opacity:0;stroke:#0a0000;stroke-width:1.05418;stroke-miterlimit:4;stroke-dasharray:none"
             id="ellipse1282"
             cx="266.27002"
             cy="138.68376"
             rx="35.499947"
             ry="41.508942" />
          <rect
             style="fill:none;fill-opacity:1;stroke:#ffffff;stroke-width:0.0766282;stroke-opacity:0;paint-order:stroke markers fill;stop-color:#000000"
             id="rect1241-9"
             width="44.594986"
             height="51.926781"
             x="243.92529"
             y="111.74261" />
          <path
             inkscape:export-ydpi="96"
             inkscape:export-xdpi="96"
             inkscape:export-filename="/home/juferoga/Imágenes/favicon.png"
             sodipodi:nodetypes="ccccscccccccccccccccccccsccccccccccccccscccccccsscccccccccccccccscccsccsccccscscccscccccscccscsscsccccccccccccccsccccccccccscsccc"
             style="fill:#000000;fill-opacity:1;stroke-width:0.0845217"
             d="m 265.80516,147.76863 c -0.79901,-0.16114 -1.05124,-0.30458 -1.26522,-0.7197 -0.25974,-0.50384 -0.19725,-0.71158 0.65839,-2.18811 0.24493,-0.4227 0.54854,-1.03947 0.67465,-1.37061 0.20727,-0.5442 0.22932,-0.6646 0.22932,-1.25224 0,-0.57779 -0.0133,-0.6536 -0.11943,-0.6808 -0.0821,-0.021 -0.201,0.0921 -0.38054,0.36235 l -0.26109,0.39301 -0.4549,-0.009 c -0.3674,-0.006 -0.57395,-0.068 -1.07376,-0.3173 -0.34035,-0.16977 -0.73022,-0.31148 -0.86638,-0.31496 l -0.24753,-0.006 -0.17636,0.72809 c -0.097,0.40045 -0.2174,0.91009 -0.26759,1.13257 -0.17022,0.75442 -0.57598,1.31392 -0.81323,1.12138 -0.19413,-0.15757 -0.26909,-0.50231 -0.26677,-1.22699 0.003,-1.08682 0.36607,-3.10822 0.64798,-3.61219 0.0788,-0.14106 0.0983,-0.14191 0.37969,-0.0164 0.1631,0.0726 0.65832,0.44618 1.10046,0.83006 0.44215,0.38387 0.95333,0.78736 1.13594,0.89666 0.57894,0.3465 0.71352,0.16191 0.8919,-1.22331 0.1474,-1.1446 0.15496,-1.96424 0.0236,-2.55585 -0.054,-0.24329 -0.0987,-0.52614 -0.0992,-0.62854 -0.002,-0.28499 0.3708,-1.17017 0.80077,-1.90411 1.56901,-2.6782 1.72417,-3.20042 1.67179,-5.62636 -0.0256,-1.18611 -0.0537,-1.51287 -0.16756,-1.95062 -0.45947,-1.76623 -1.83153,-4.06088 -3.28433,-5.49274 -0.89889,-0.88595 -1.45794,-1.13432 -2.70034,-1.19959 -0.98325,-0.0517 -1.77896,0.0987 -2.74454,0.51872 -0.90596,0.39405 -1.44822,0.78506 -1.88746,1.36096 -0.38167,0.5004 -0.52141,0.75437 -1.22995,2.23524 -0.22652,0.47341 -0.45284,0.90522 -0.50294,0.9596 -0.14118,0.15315 -0.39372,0.0313 -0.44053,-0.21253 -0.0659,-0.34309 0.13909,-1.47923 0.37806,-2.09569 0.60563,-1.56232 1.51921,-2.47737 3.12586,-3.13092 0.54874,-0.22321 0.6528,-0.29218 0.66927,-0.44348 0.0256,-0.23494 -0.16603,-0.29831 -0.75116,-0.2484 -0.30079,0.0256 -0.69378,0.14946 -1.21767,0.38359 -1.49125,0.66642 -1.84017,1.02059 -2.70746,2.74806 -0.65762,1.3099 -0.90971,1.70486 -1.08816,1.70486 -0.11083,0 -0.11698,-0.0408 -0.0791,-0.52401 0.11051,-1.40995 0.7286,-2.78796 1.78349,-3.97609 0.46006,-0.51815 1.55143,-1.45198 2.02935,-1.73639 0.66798,-0.39752 0.8312,-0.52952 0.92826,-0.75058 0.11867,-0.27032 0.0461,-0.43905 -0.28275,-0.65779 -0.19584,-0.13025 -0.3534,-0.15951 -0.80823,-0.15013 -1.435,0.0296 -2.38546,0.88705 -3.82056,3.44673 -0.36795,0.65629 -0.69438,1.19325 -0.72541,1.19325 -0.0817,0 -0.0707,-0.1433 0.0632,-0.82812 0.35797,-1.82965 1.21955,-3.45576 2.27518,-4.29406 0.4985,-0.39587 1.17496,-0.67264 1.90616,-0.77994 0.84717,-0.1243 1.07408,-0.21298 1.15753,-0.4524 0.0563,-0.16167 0.0484,-0.22707 -0.0436,-0.36002 -0.18592,-0.26841 -0.53394,-0.33938 -1.38415,-0.28205 -1.28142,0.0864 -1.50405,0.19428 -3.80451,1.84459 -1.03741,0.74421 -1.40837,0.80261 -1.18472,0.18651 0.21528,-0.59305 1.56729,-2.00451 2.41931,-2.52567 1.22712,-0.7506 2.65923,-0.89795 4.72763,-0.48641 0.32335,0.0643 0.66448,0.14218 0.75808,0.17302 0.27111,0.0893 0.49121,-0.016 0.46815,-0.22383 -0.0397,-0.35811 -0.91747,-0.92843 -1.99416,-1.29565 -0.46138,-0.15735 -0.67318,-0.1714 -2.69758,-0.17878 -1.80539,-0.006 -2.22997,-0.0293 -2.38254,-0.1277 -0.27642,-0.17824 -0.23079,-0.33592 0.15522,-0.53613 0.94453,-0.48993 2.76806,-0.70876 4.30885,-0.51711 1.13057,0.14063 1.47367,0.26105 2.59072,0.90923 1.26485,0.73395 1.54136,0.856 2.25878,0.99708 1.63726,0.32195 3.46361,1.22152 4.12582,2.03216 0.1926,0.23579 0.20606,0.28662 0.20606,0.77859 0,0.28951 -0.0419,0.68133 -0.093,0.87078 -0.11968,0.4434 -0.50496,1.18507 -0.98731,1.90061 -0.51562,0.76485 -0.5906,0.9216 -0.5906,1.23467 0,0.58826 0.47686,1.32933 1.03454,1.60775 0.2574,0.12851 0.30093,0.12816 0.74876,-0.006 0.85925,-0.25729 1.07175,-0.28781 1.35463,-0.1947 0.34039,0.11203 0.78477,0.0573 1.09371,-0.13458 0.13206,-0.0821 0.44183,-0.38851 0.68839,-0.68103 0.24656,-0.29252 0.64718,-0.76233 0.89028,-1.04402 0.64556,-0.74809 0.65159,-0.77115 0.60152,-2.30205 -0.0584,-1.78443 -0.24216,-3.12779 -0.44863,-3.27885 -0.15667,-0.1146 -0.80329,0.0504 -1.55874,0.39783 -0.83291,0.38303 -1.88764,0.80119 -1.91864,0.76065 -0.0618,-0.0808 0.3893,-0.32818 1.45698,-0.79951 1.34351,-0.59312 1.75169,-0.83299 1.84886,-1.08662 0.16453,-0.42938 0.37039,-0.57274 1.01425,-0.70623 0.1524,-0.0316 0.34093,-0.11212 0.41892,-0.1789 0.10299,-0.0883 0.22194,-0.10672 0.43454,-0.0675 0.7705,0.14181 0.8564,0.14045 1.29835,-0.021 0.24678,-0.0901 0.44867,-0.14828 0.44867,-0.12931 0,0.0189 -0.1778,0.13987 -0.3951,0.26868 -0.32793,0.19435 -0.40691,0.28045 -0.46459,0.50641 -0.0383,0.14973 -0.16676,0.43204 -0.28562,0.62741 -0.36731,0.60363 -0.29431,1.0855 0.46987,3.10192 0.34307,0.90523 0.48071,1.35074 0.45393,1.4693 -0.12159,0.53848 -0.89265,1.4422 -2.27207,2.66296 -1.22587,1.08487 -1.59078,1.45321 -1.59078,1.60569 0,0.082 0.16818,0.53059 0.37374,0.99706 1.09965,2.49549 1.46743,4.11477 1.52563,6.71736 0.0558,2.49626 -0.16354,3.94258 -0.9235,6.08918 -0.5068,1.43146 -0.79064,2.04395 -1.17349,2.53215 -0.27796,0.35446 -0.91389,0.80126 -1.14058,0.80137 -0.20784,1e-4 -0.64557,0.22705 -0.87048,0.45127 -0.31351,0.31261 -0.4554,0.75647 -0.51791,1.62013 -0.0897,1.23945 -0.33655,2.34662 -0.88054,3.94938 -0.11966,0.35256 -0.20403,0.68704 -0.18751,0.74337 0.0354,0.12086 0.1013,0.1403 1.20698,0.35692 1.24883,0.24468 1.76406,0.44402 1.96479,0.76017 0.11551,0.18198 0.0441,0.34045 -0.23854,0.52891 -0.63958,0.42653 -1.76707,0.51387 -3.11783,0.24147 z m 6.56821,-29.00175 c 0.46335,-0.30304 0.6911,-0.59199 0.69059,-0.87618 -7.8e-4,-0.60643 -1.32287,-3.60928 -1.58874,-3.60928 -0.089,0 -0.0952,0.11185 -0.0564,1.0231 0.0486,1.14329 0.25389,3.53981 0.31416,3.66729 0.0635,0.13447 0.17684,0.0982 0.64042,-0.20493 z m 1.99857,-7.27353 c 0.0158,-0.0208 0.38943,-0.21598 0.83027,-0.43405 1.4792,-0.73167 2.68749,-1.61298 3.7546,-2.73848 0.26274,-0.27713 0.4888,-0.4782 0.50238,-0.44686 0.0136,0.0313 0.0596,0.25723 0.10216,0.50193 0.0815,0.46814 0.31839,1.1618 0.4738,1.38746 0.0506,0.0735 0.0671,0.1536 0.0367,0.17812 -0.0304,0.0244 -0.45686,0.12104 -0.94777,0.21443 -1.06943,0.20347 -1.63428,0.34765 -2.37778,0.60693 -0.81051,0.28266 -3.21655,1.24394 -3.27268,1.24394 -0.0265,0 0.37922,-0.24814 0.39509,-0.26869 z"
             id="path231"
             inkscape:connector-curvature="0" />
          <text
             inkscape:export-ydpi="96"
             inkscape:export-xdpi="96"
             inkscape:export-filename="/home/juferoga/Imágenes/gludlogow.png"
             id="text47"
             y="144.73305"
             x="284.35114"
             style="font-style:normal;font-weight:normal;font-size:11.1322px;line-height:1.25;font-family:sans-serif;letter-spacing:-0.626501px;word-spacing:0px;fill:#070707;fill-opacity:1;stroke:none;stroke-width:0.332453"
             xml:space="preserve"
             transform="scale(0.8923427,1.1206457)"><tspan
               style="font-style:normal;font-variant:normal;font-weight:normal;font-stretch:normal;font-family:'URW Gothic';-inkscape-font-specification:'URW Gothic';letter-spacing:-0.626501px;fill:#070707;fill-opacity:1;stroke-width:0.332453"
               y="144.73305"
               x="284.35114"
               id="tspan45"
               sodipodi:role="line">GLUD </tspan></text>
          <text
             inkscape:export-ydpi="96"
             inkscape:export-xdpi="96"
             inkscape:export-filename="/home/juferoga/Imágenes/gludlogow.png"
             id="text47-3"
             y="153.7614"
             x="277.8118"
             style="font-style:normal;font-weight:normal;font-size:11.1322px;line-height:1.25;font-family:sans-serif;letter-spacing:-0.626501px;word-spacing:0px;fill:#070707;fill-opacity:1;stroke:none;stroke-width:0.332453"
             xml:space="preserve"
             transform="scale(0.8923427,1.1206457)"><tspan
               style="font-style:normal;font-variant:normal;font-weight:normal;font-stretch:normal;font-family:'URW Gothic';-inkscape-font-specification:'URW Gothic';letter-spacing:-0.626501px;fill:#070707;fill-opacity:1;stroke-width:0.332453"
               y="153.7614"
               x="277.8118"
               id="tspan45-6"
               sodipodi:role="line">Ciencias</tspan></text>
          <path
             style="fill:none;stroke:#000000;stroke-width:0.859348;stroke-linecap:butt;stroke-linejoin:miter;stroke-miterlimit:4;stroke-dasharray:none;stroke-opacity:1"
             d="m 252.74984,151.33173 c 27.02705,0 27.02705,0 27.02705,0"
             id="path3720"
             inkscape:connector-curvature="0" />
          <path
             inkscape:connector-curvature="0"
             id="path4543"
             d="m 251.02083,149.75315 c 30.48506,0 30.48506,0 30.48506,0"
             style="fill:none;stroke:#000000;stroke-width:0.969303;stroke-linecap:butt;stroke-linejoin:miter;stroke-miterlimit:4;stroke-dasharray:none;stroke-opacity:1" />
        </g>
      </g>
    </g>
  </g>
</svg>
